<svg width="17" height="17" viewBox="0 0 17 17" fill="none" xmlns="http://www.w3.org/2000/svg">
<path fill-rule="evenodd" clip-rule="evenodd" d="M8.64611 14.4658C8.81678 14.558 9.00786 14.5592 9.20181 14.5582C9.50885 14.5582 9.80332 14.4363 10.0204 14.2192C10.2375 14.002 10.3595 13.7076 10.3595 13.4005V7.73934C10.3581 7.70435 10.3647 7.6695 10.3787 7.63741C10.3928 7.60533 10.4139 7.57685 10.4406 7.55411L14.0063 4.69457L14.0526 4.64826C14.3652 4.30095 14.4462 3.82629 14.261 3.39794C14.0758 2.96959 13.6589 2.58441 13.1958 2.58441H3.67946C3.21638 2.58441 2.64811 3.0159 2.46287 3.44425C2.27764 3.8726 2.35868 4.35884 2.68284 4.69457L2.72915 4.74088L6.42331 7.51938C6.45207 7.54095 6.47541 7.56891 6.49148 7.60106C6.50756 7.63321 6.51593 7.66867 6.51593 7.70461V12.5554C6.51536 12.7637 6.57098 12.9682 6.67693 13.1475C6.78288 13.3268 6.93523 13.5208 7.11794 13.6207L8.64611 14.4658ZM7.11559 6.69805L3.49431 3.99995C3.46851 3.96555 3.4528 3.92464 3.44894 3.88182C3.44508 3.83899 3.45322 3.79593 3.47245 3.75747C3.49168 3.71901 3.52124 3.68667 3.55781 3.66406C3.59439 3.64146 3.63654 3.62948 3.67954 3.62948H13.1959C13.2389 3.62948 13.281 3.64146 13.3176 3.66406C13.3542 3.68667 13.3838 3.71901 13.403 3.75747C13.4222 3.79593 13.4304 3.83899 13.4265 3.88182C13.4226 3.92464 13.4069 3.96555 13.3811 3.99995L9.77216 6.83633C9.63785 6.94529 9.52965 7.08297 9.45552 7.23923C9.3814 7.3955 9.34323 7.56639 9.34381 7.73934V13.3812C9.34523 13.4225 9.33557 13.4635 9.31582 13.4998C9.29608 13.5361 9.26698 13.5665 9.23153 13.5877C9.19609 13.609 9.15561 13.6204 9.11428 13.6207C9.07295 13.6211 9.03228 13.6103 8.9965 13.5896L7.64228 12.7836C7.6059 12.7626 7.57591 12.7322 7.55551 12.6955C7.53512 12.6588 7.52509 12.6172 7.52651 12.5752L7.55551 7.60106C7.55556 7.42702 7.51597 7.25526 7.43974 7.0988C7.36352 6.94234 7.25266 6.80529 7.11559 6.69805ZM11.2854 8.8289H13.9018C14.0246 8.8289 14.1424 8.78011 14.2292 8.69326C14.3161 8.60642 14.3649 8.4448 14.3649 8.32198C14.3649 8.19917 14.3161 8.08138 14.2292 7.99454C14.1424 7.90769 14.0246 7.8589 13.9018 7.8589H11.2854C11.1626 7.8589 11.0448 7.90769 10.9579 7.99454C10.8711 8.08138 10.8223 8.19917 10.8223 8.32198C10.8223 8.4448 10.8711 8.60642 10.9579 8.69326C11.0448 8.78011 11.1626 8.8289 11.2854 8.8289ZM11.2854 10.5717H13.9018C14.0246 10.5717 14.1424 10.5229 14.2292 10.4361C14.3161 10.3492 14.3649 10.1814 14.3649 10.0585C14.3649 9.93573 14.3161 9.81794 14.2292 9.7311C14.1424 9.64425 14.0246 9.59546 13.9018 9.59546H11.2854C11.1626 9.59546 11.0448 9.64425 10.9579 9.7311C10.8711 9.81794 10.8223 9.93573 10.8223 10.0585C10.8223 10.1814 10.8711 10.3492 10.9579 10.4361C11.0448 10.5229 11.1626 10.5717 11.2854 10.5717ZM13.9018 12.2967H11.2854C11.1626 12.2967 11.0448 12.2479 10.9579 12.1611C10.8711 12.0742 10.8223 11.9063 10.8223 11.7835C10.8223 11.6607 10.8711 11.5429 10.9579 11.4561C11.0448 11.3692 11.1626 11.3204 11.2854 11.3204H13.9018C14.0246 11.3204 14.1424 11.3692 14.2292 11.4561C14.3161 11.5429 14.3649 11.6607 14.3649 11.7835C14.3649 11.9063 14.3161 12.0742 14.2292 12.1611C14.1424 12.2479 14.0246 12.2967 13.9018 12.2967Z" fill="#333333"/>
</svg>
