<svg width="17" height="17" viewBox="0 0 17 17" fill="none" xmlns="http://www.w3.org/2000/svg">
    <path d="M3.81595 5.64512C3.21595 5.64512 2.68262 5.11178 2.68262 4.44512C2.68262 3.77845 3.21595 3.24512 3.88262 3.24512C4.54928 3.24512 5.08262 3.77845 5.08262 4.44512C5.01595 5.11178 4.48262 5.64512 3.81595 5.64512ZM3.81595 3.97845C3.54928 3.97845 3.34928 4.17845 3.34928 4.44512C3.34928 4.71178 3.54928 4.91178 3.81595 4.91178C4.08262 4.91178 4.28262 4.71178 4.28262 4.44512C4.28262 4.24512 4.08262 3.97845 3.81595 3.97845Z" fill="#CCCCCC"/>
    <path d="M3.81594 6.04513C4.2826 6.04513 4.74927 5.77846 4.94927 5.44513C4.94927 5.97846 4.41594 6.44513 3.81594 6.44513C3.21594 6.44513 2.74927 5.97846 2.6826 5.44513C2.94927 5.77846 3.34927 6.04513 3.81594 6.04513ZM3.81594 13.0451C3.14927 13.0451 2.61594 12.5118 2.61594 11.8451C2.61594 11.1785 3.14927 10.6451 3.81594 10.6451C4.4826 10.6451 5.01594 11.1785 5.01594 11.8451C5.01594 12.5118 4.4826 13.0451 3.81594 13.0451ZM3.81594 11.4451C3.54927 11.4451 3.34927 11.6451 3.34927 11.9118C3.34927 12.1785 3.54927 12.3785 3.81594 12.3785C4.0826 12.3785 4.2826 12.1785 4.2826 11.9118C4.2826 11.6451 4.0826 11.4451 3.81594 11.4451Z" fill="#FAFAFA"/>
    <path d="M3.81595 13.4451C4.28262 13.4451 4.74928 13.1785 4.94928 12.8451C4.88262 13.4451 4.34928 13.8451 3.81595 13.8451C3.28262 13.8451 2.74928 13.4451 2.68262 12.8451C2.94928 13.1785 3.34928 13.4451 3.81595 13.4451ZM3.81595 9.3118C3.21595 9.3118 2.68262 8.77847 2.68262 8.1118C2.68262 7.44514 3.21595 6.9118 3.88262 6.9118C4.54928 6.9118 5.08262 7.44514 5.08262 8.1118C5.08262 8.77847 4.48262 9.3118 3.81595 9.3118ZM3.81595 7.7118C3.54928 7.7118 3.34928 7.9118 3.34928 8.17847C3.34928 8.44514 3.54928 8.64514 3.81595 8.64514C4.08262 8.64514 4.28262 8.44514 4.28262 8.17847C4.28262 7.9118 4.08262 7.7118 3.81595 7.7118Z" fill="#FAFAFA"/>
    <path d="M3.81595 9.71177C4.28262 9.71177 4.74928 9.4451 4.94928 9.11177C4.94928 9.6451 4.41595 10.1118 3.81595 10.1118C3.21595 10.1118 2.74928 9.6451 2.68262 9.11177C2.94928 9.4451 3.34928 9.71177 3.81595 9.71177ZM14.0826 5.77843H6.68262C6.34928 5.77843 6.08262 5.51177 6.08262 5.17843V4.91177C6.08262 4.57843 6.34928 4.31177 6.68262 4.31177H14.0826C14.4159 4.31177 14.6826 4.57843 14.6826 4.91177V5.11177C14.6826 5.51177 14.4159 5.77843 14.0826 5.77843ZM14.0826 9.4451H6.68262C6.34928 9.4451 6.08262 9.17843 6.08262 8.8451V8.6451C6.08262 8.31177 6.34928 8.0451 6.68262 8.0451H14.0826C14.4159 8.0451 14.6826 8.31177 14.6826 8.6451V8.8451C14.6826 9.17843 14.4159 9.4451 14.0826 9.4451ZM14.0826 13.1784H6.68262C6.34928 13.1784 6.08262 12.9118 6.08262 12.5784V12.3784C6.08262 12.0451 6.34928 11.7784 6.68262 11.7784H14.0826C14.4159 11.7784 14.6826 12.0451 14.6826 12.3784V12.5784C14.6826 12.9118 14.4159 13.1784 14.0826 13.1784Z" fill="#FAFAFA"/>
</svg>
